# xmcd CD database file
#
# Track frame offsets:
#	150
#	29937
#	46974
#	65438
#	93042
#	106606
#	138538
#	160274
#	191035
#	217872
#
# Disc length: 3277 seconds
#
# Revision: 1
# Processed by: cddbd v1.5.2PL0 Copyright (c) Steve Scherf et al.
# Submitted via: CDex 1.70beta3
#
DISCID=860ccb0a
DTITLE=EPO - AQUA NOME
DYEAR=2009
DGENRE=Pop
TTITLE0=M
TTITLE1=100gの金と綿
TTITLE2=サイレントソング
TTITLE3=NOAH
TTITLE4=ベラルーシの泉
TTITLE5=たったひとつの
TTITLE6=春の水
TTITLE7=AQUA NOME
TTITLE8=でも生きている
TTITLE9=Glory
EXTD=YEAR: 2009
EXTT0=
EXTT1=
EXTT2=
EXTT3=
EXTT4=
EXTT5=
EXTT6=
EXTT7=
EXTT8=
EXTT9=
PLAYORDER=
